<mxfile host="Electron" modified="2023-10-24T23:16:26.233Z" agent="Mozilla/5.0 (Windows NT 10.0; Win64; x64) AppleWebKit/537.36 (KHTML, like Gecko) draw.io/22.0.3 Chrome/114.0.5735.289 Electron/25.8.4 Safari/537.36" etag="84mBNabluzKxaU0qCetW" version="22.0.3" type="device">
  <diagram name="第 1 页" id="Sx-f5lYUHPB2REqiYFDU">
    <mxGraphModel dx="1120" dy="532" grid="1" gridSize="10" guides="1" tooltips="1" connect="1" arrows="1" fold="1" page="1" pageScale="1" pageWidth="827" pageHeight="1169" math="0" shadow="0">
      <root>
        <mxCell id="0" />
        <mxCell id="1" parent="0" />
        <mxCell id="C0jkndqXtS-gSlhaF5FD-2" value="package ceteringservice [cateringservice_context]" style="shape=umlFrame;whiteSpace=wrap;html=1;pointerEvents=0;width=280;height=30;" vertex="1" parent="1">
          <mxGeometry x="80" y="70" width="710" height="500" as="geometry" />
        </mxCell>
        <mxCell id="C0jkndqXtS-gSlhaF5FD-3" value="" style="html=1;dropTarget=0;whiteSpace=wrap;" vertex="1" parent="1">
          <mxGeometry x="190" y="123.75" width="510" height="392.5" as="geometry" />
        </mxCell>
        <mxCell id="C0jkndqXtS-gSlhaF5FD-4" value="" style="shape=module;jettyWidth=8;jettyHeight=4;" vertex="1" parent="C0jkndqXtS-gSlhaF5FD-3">
          <mxGeometry x="1" width="20" height="20" relative="1" as="geometry">
            <mxPoint x="-27" y="7" as="offset" />
          </mxGeometry>
        </mxCell>
        <mxCell id="C0jkndqXtS-gSlhaF5FD-5" value="" style="rounded=0;whiteSpace=wrap;html=1;" vertex="1" parent="1">
          <mxGeometry x="180" y="177.5" width="20" height="20" as="geometry" />
        </mxCell>
        <mxCell id="C0jkndqXtS-gSlhaF5FD-7" value="" style="rounded=0;whiteSpace=wrap;html=1;" vertex="1" parent="1">
          <mxGeometry x="180" y="277.5" width="20" height="20" as="geometry" />
        </mxCell>
        <mxCell id="C0jkndqXtS-gSlhaF5FD-8" value="" style="rounded=0;whiteSpace=wrap;html=1;" vertex="1" parent="1">
          <mxGeometry x="180" y="362.5" width="20" height="20" as="geometry" />
        </mxCell>
        <mxCell id="C0jkndqXtS-gSlhaF5FD-9" value="" style="rounded=0;whiteSpace=wrap;html=1;" vertex="1" parent="1">
          <mxGeometry x="180" y="445" width="20" height="20" as="geometry" />
        </mxCell>
        <mxCell id="C0jkndqXtS-gSlhaF5FD-11" value="" style="rounded=0;whiteSpace=wrap;html=1;" vertex="1" parent="1">
          <mxGeometry x="690" y="232.5" width="20" height="20" as="geometry" />
        </mxCell>
        <mxCell id="C0jkndqXtS-gSlhaF5FD-12" value="" style="rounded=0;whiteSpace=wrap;html=1;" vertex="1" parent="1">
          <mxGeometry x="690" y="392.5" width="20" height="20" as="geometry" />
        </mxCell>
        <mxCell id="C0jkndqXtS-gSlhaF5FD-13" value="User" style="text;html=1;strokeColor=none;fillColor=none;align=center;verticalAlign=middle;whiteSpace=wrap;rounded=0;" vertex="1" parent="1">
          <mxGeometry x="110" y="172.5" width="60" height="30" as="geometry" />
        </mxCell>
        <mxCell id="C0jkndqXtS-gSlhaF5FD-14" value="Unauthenticated User" style="text;html=1;strokeColor=none;fillColor=none;align=center;verticalAlign=middle;whiteSpace=wrap;rounded=0;" vertex="1" parent="1">
          <mxGeometry x="110" y="270" width="60" height="30" as="geometry" />
        </mxCell>
        <mxCell id="C0jkndqXtS-gSlhaF5FD-15" value="Registered User" style="text;html=1;strokeColor=none;fillColor=none;align=center;verticalAlign=middle;whiteSpace=wrap;rounded=0;" vertex="1" parent="1">
          <mxGeometry x="110" y="357.5" width="60" height="30" as="geometry" />
        </mxCell>
        <mxCell id="C0jkndqXtS-gSlhaF5FD-16" value="Customer" style="text;html=1;strokeColor=none;fillColor=none;align=center;verticalAlign=middle;whiteSpace=wrap;rounded=0;" vertex="1" parent="1">
          <mxGeometry x="110" y="440" width="60" height="30" as="geometry" />
        </mxCell>
        <mxCell id="C0jkndqXtS-gSlhaF5FD-17" value="Staff" style="text;html=1;strokeColor=none;fillColor=none;align=center;verticalAlign=middle;whiteSpace=wrap;rounded=0;" vertex="1" parent="1">
          <mxGeometry x="710" y="227.5" width="60" height="30" as="geometry" />
        </mxCell>
        <mxCell id="C0jkndqXtS-gSlhaF5FD-18" value="Boss" style="text;html=1;strokeColor=none;fillColor=none;align=center;verticalAlign=middle;whiteSpace=wrap;rounded=0;" vertex="1" parent="1">
          <mxGeometry x="710" y="387.5" width="60" height="30" as="geometry" />
        </mxCell>
        <mxCell id="C0jkndqXtS-gSlhaF5FD-19" value="&amp;lt;&amp;lt;component&amp;gt;&amp;gt;&lt;br&gt;cateringservice" style="text;html=1;strokeColor=none;fillColor=none;align=center;verticalAlign=middle;whiteSpace=wrap;rounded=0;" vertex="1" parent="1">
          <mxGeometry x="400" y="132.5" width="60" height="30" as="geometry" />
        </mxCell>
        <mxCell id="C0jkndqXtS-gSlhaF5FD-20" value="«component»&lt;br&gt;&lt;b&gt;CateringCatalog&lt;/b&gt;" style="html=1;dropTarget=0;whiteSpace=wrap;" vertex="1" parent="1">
          <mxGeometry x="290" y="162.5" width="120" height="60" as="geometry" />
        </mxCell>
        <mxCell id="C0jkndqXtS-gSlhaF5FD-21" value="" style="shape=module;jettyWidth=8;jettyHeight=4;" vertex="1" parent="C0jkndqXtS-gSlhaF5FD-20">
          <mxGeometry x="1" width="20" height="20" relative="1" as="geometry">
            <mxPoint x="-27" y="7" as="offset" />
          </mxGeometry>
        </mxCell>
        <mxCell id="C0jkndqXtS-gSlhaF5FD-22" value="««component»»&lt;br&gt;&lt;b&gt;Restaurant&lt;/b&gt;" style="html=1;dropTarget=0;whiteSpace=wrap;" vertex="1" parent="1">
          <mxGeometry x="290" y="252.5" width="120" height="60" as="geometry" />
        </mxCell>
        <mxCell id="C0jkndqXtS-gSlhaF5FD-23" value="" style="shape=module;jettyWidth=8;jettyHeight=4;" vertex="1" parent="C0jkndqXtS-gSlhaF5FD-22">
          <mxGeometry x="1" width="20" height="20" relative="1" as="geometry">
            <mxPoint x="-27" y="7" as="offset" />
          </mxGeometry>
        </mxCell>
        <mxCell id="C0jkndqXtS-gSlhaF5FD-24" value="««component»»&lt;br&gt;&lt;b&gt;Cart&lt;/b&gt;" style="html=1;dropTarget=0;whiteSpace=wrap;" vertex="1" parent="1">
          <mxGeometry x="290" y="342.5" width="120" height="60" as="geometry" />
        </mxCell>
        <mxCell id="C0jkndqXtS-gSlhaF5FD-25" value="" style="shape=module;jettyWidth=8;jettyHeight=4;" vertex="1" parent="C0jkndqXtS-gSlhaF5FD-24">
          <mxGeometry x="1" width="20" height="20" relative="1" as="geometry">
            <mxPoint x="-27" y="7" as="offset" />
          </mxGeometry>
        </mxCell>
        <mxCell id="C0jkndqXtS-gSlhaF5FD-26" value="««component»»&lt;br&gt;&lt;b&gt;Customer&lt;/b&gt;" style="html=1;dropTarget=0;whiteSpace=wrap;" vertex="1" parent="1">
          <mxGeometry x="460" y="162.5" width="120" height="60" as="geometry" />
        </mxCell>
        <mxCell id="C0jkndqXtS-gSlhaF5FD-27" value="" style="shape=module;jettyWidth=8;jettyHeight=4;" vertex="1" parent="C0jkndqXtS-gSlhaF5FD-26">
          <mxGeometry x="1" width="20" height="20" relative="1" as="geometry">
            <mxPoint x="-27" y="7" as="offset" />
          </mxGeometry>
        </mxCell>
        <mxCell id="C0jkndqXtS-gSlhaF5FD-28" value="««component»»&lt;br&gt;&lt;b&gt;Managment&lt;/b&gt;" style="html=1;dropTarget=0;whiteSpace=wrap;" vertex="1" parent="1">
          <mxGeometry x="460" y="257.5" width="120" height="60" as="geometry" />
        </mxCell>
        <mxCell id="C0jkndqXtS-gSlhaF5FD-29" value="" style="shape=module;jettyWidth=8;jettyHeight=4;" vertex="1" parent="C0jkndqXtS-gSlhaF5FD-28">
          <mxGeometry x="1" width="20" height="20" relative="1" as="geometry">
            <mxPoint x="-27" y="7" as="offset" />
          </mxGeometry>
        </mxCell>
        <mxCell id="C0jkndqXtS-gSlhaF5FD-30" value="««component»»&lt;br&gt;&lt;b&gt;Inventory&lt;/b&gt;" style="html=1;dropTarget=0;whiteSpace=wrap;" vertex="1" parent="1">
          <mxGeometry x="460" y="342.5" width="120" height="60" as="geometry" />
        </mxCell>
        <mxCell id="C0jkndqXtS-gSlhaF5FD-31" value="" style="shape=module;jettyWidth=8;jettyHeight=4;" vertex="1" parent="C0jkndqXtS-gSlhaF5FD-30">
          <mxGeometry x="1" width="20" height="20" relative="1" as="geometry">
            <mxPoint x="-27" y="7" as="offset" />
          </mxGeometry>
        </mxCell>
        <mxCell id="C0jkndqXtS-gSlhaF5FD-32" value="" style="rounded=0;whiteSpace=wrap;html=1;" vertex="1" parent="1">
          <mxGeometry x="280" y="182.5" width="20" height="20" as="geometry" />
        </mxCell>
        <mxCell id="C0jkndqXtS-gSlhaF5FD-33" value="" style="rounded=0;whiteSpace=wrap;html=1;" vertex="1" parent="1">
          <mxGeometry x="400" y="182.5" width="20" height="20" as="geometry" />
        </mxCell>
        <mxCell id="C0jkndqXtS-gSlhaF5FD-34" value="" style="rounded=0;whiteSpace=wrap;html=1;" vertex="1" parent="1">
          <mxGeometry x="280" y="275" width="20" height="20" as="geometry" />
        </mxCell>
        <mxCell id="C0jkndqXtS-gSlhaF5FD-35" value="" style="rounded=0;whiteSpace=wrap;html=1;" vertex="1" parent="1">
          <mxGeometry x="280" y="362.5" width="20" height="20" as="geometry" />
        </mxCell>
        <mxCell id="C0jkndqXtS-gSlhaF5FD-36" value="" style="rounded=0;whiteSpace=wrap;html=1;" vertex="1" parent="1">
          <mxGeometry x="450" y="277.5" width="20" height="20" as="geometry" />
        </mxCell>
        <mxCell id="C0jkndqXtS-gSlhaF5FD-37" value="" style="rounded=0;whiteSpace=wrap;html=1;" vertex="1" parent="1">
          <mxGeometry x="570" y="277.5" width="20" height="20" as="geometry" />
        </mxCell>
        <mxCell id="C0jkndqXtS-gSlhaF5FD-38" value="" style="rounded=0;whiteSpace=wrap;html=1;" vertex="1" parent="1">
          <mxGeometry x="450" y="362.5" width="20" height="20" as="geometry" />
        </mxCell>
        <mxCell id="C0jkndqXtS-gSlhaF5FD-39" value="" style="rounded=0;whiteSpace=wrap;html=1;" vertex="1" parent="1">
          <mxGeometry x="510" y="212.5" width="20" height="20" as="geometry" />
        </mxCell>
        <mxCell id="C0jkndqXtS-gSlhaF5FD-46" value="" style="endArrow=open;endSize=12;dashed=1;html=1;rounded=0;exitX=1;exitY=0.5;exitDx=0;exitDy=0;" edge="1" parent="1" source="C0jkndqXtS-gSlhaF5FD-5" target="C0jkndqXtS-gSlhaF5FD-32">
          <mxGeometry x="-0.0728" y="12" width="160" relative="1" as="geometry">
            <mxPoint x="410" y="280" as="sourcePoint" />
            <mxPoint x="570" y="280" as="targetPoint" />
            <Array as="points">
              <mxPoint x="250" y="188" />
            </Array>
            <mxPoint as="offset" />
          </mxGeometry>
        </mxCell>
        <mxCell id="C0jkndqXtS-gSlhaF5FD-47" value="" style="endArrow=open;endSize=12;dashed=1;html=1;rounded=0;exitX=1;exitY=0.5;exitDx=0;exitDy=0;entryX=0;entryY=0.5;entryDx=0;entryDy=0;" edge="1" parent="1" source="C0jkndqXtS-gSlhaF5FD-5" target="C0jkndqXtS-gSlhaF5FD-34">
          <mxGeometry x="-0.0728" y="12" width="160" relative="1" as="geometry">
            <mxPoint x="210" y="198" as="sourcePoint" />
            <mxPoint x="290" y="201" as="targetPoint" />
            <Array as="points">
              <mxPoint x="270" y="220" />
            </Array>
            <mxPoint as="offset" />
          </mxGeometry>
        </mxCell>
        <mxCell id="C0jkndqXtS-gSlhaF5FD-48" value="" style="endArrow=open;endSize=12;dashed=1;html=1;rounded=0;exitX=1;exitY=0.5;exitDx=0;exitDy=0;" edge="1" parent="1">
          <mxGeometry x="-0.0728" y="12" width="160" relative="1" as="geometry">
            <mxPoint x="200" y="286" as="sourcePoint" />
            <mxPoint x="280" y="289" as="targetPoint" />
            <Array as="points">
              <mxPoint x="250" y="286" />
            </Array>
            <mxPoint as="offset" />
          </mxGeometry>
        </mxCell>
        <mxCell id="C0jkndqXtS-gSlhaF5FD-49" value="" style="endArrow=open;endSize=12;dashed=1;html=1;rounded=0;exitX=1;exitY=0.5;exitDx=0;exitDy=0;" edge="1" parent="1" source="C0jkndqXtS-gSlhaF5FD-8" target="C0jkndqXtS-gSlhaF5FD-35">
          <mxGeometry x="-0.0728" y="12" width="160" relative="1" as="geometry">
            <mxPoint x="230" y="218" as="sourcePoint" />
            <mxPoint x="310" y="221" as="targetPoint" />
            <Array as="points">
              <mxPoint x="240" y="370" />
            </Array>
            <mxPoint as="offset" />
          </mxGeometry>
        </mxCell>
        <mxCell id="C0jkndqXtS-gSlhaF5FD-50" value="" style="endArrow=open;endSize=12;dashed=1;html=1;rounded=0;exitX=1;exitY=0.5;exitDx=0;exitDy=0;entryX=0.25;entryY=1;entryDx=0;entryDy=0;" edge="1" parent="1" target="C0jkndqXtS-gSlhaF5FD-35">
          <mxGeometry x="-0.0728" y="12" width="160" relative="1" as="geometry">
            <mxPoint x="190" y="453.5" as="sourcePoint" />
            <mxPoint x="270" y="456.5" as="targetPoint" />
            <Array as="points">
              <mxPoint x="240" y="453.5" />
            </Array>
            <mxPoint as="offset" />
          </mxGeometry>
        </mxCell>
        <mxCell id="C0jkndqXtS-gSlhaF5FD-51" value="" style="endArrow=open;endSize=12;dashed=1;html=1;rounded=0;exitX=0;exitY=0.5;exitDx=0;exitDy=0;entryX=1;entryY=0.5;entryDx=0;entryDy=0;" edge="1" parent="1" source="C0jkndqXtS-gSlhaF5FD-11" target="C0jkndqXtS-gSlhaF5FD-37">
          <mxGeometry x="-0.0728" y="12" width="160" relative="1" as="geometry">
            <mxPoint x="610" y="340" as="sourcePoint" />
            <mxPoint x="690" y="343" as="targetPoint" />
            <Array as="points">
              <mxPoint x="630" y="250" />
            </Array>
            <mxPoint as="offset" />
          </mxGeometry>
        </mxCell>
        <mxCell id="C0jkndqXtS-gSlhaF5FD-52" value="" style="endArrow=open;endSize=12;dashed=1;html=1;rounded=0;exitX=0;exitY=0.5;exitDx=0;exitDy=0;entryX=1;entryY=0.5;entryDx=0;entryDy=0;" edge="1" parent="1" source="C0jkndqXtS-gSlhaF5FD-12" target="C0jkndqXtS-gSlhaF5FD-37">
          <mxGeometry x="-0.0728" y="12" width="160" relative="1" as="geometry">
            <mxPoint x="700" y="350" as="sourcePoint" />
            <mxPoint x="600" y="395" as="targetPoint" />
            <Array as="points">
              <mxPoint x="640" y="403" />
            </Array>
            <mxPoint as="offset" />
          </mxGeometry>
        </mxCell>
        <mxCell id="C0jkndqXtS-gSlhaF5FD-53" value="««component»»&lt;br&gt;&lt;b&gt;Service&lt;/b&gt;" style="html=1;dropTarget=0;whiteSpace=wrap;" vertex="1" parent="1">
          <mxGeometry x="290" y="430" width="120" height="60" as="geometry" />
        </mxCell>
        <mxCell id="C0jkndqXtS-gSlhaF5FD-54" value="" style="shape=module;jettyWidth=8;jettyHeight=4;" vertex="1" parent="C0jkndqXtS-gSlhaF5FD-53">
          <mxGeometry x="1" width="20" height="20" relative="1" as="geometry">
            <mxPoint x="-27" y="7" as="offset" />
          </mxGeometry>
        </mxCell>
        <mxCell id="C0jkndqXtS-gSlhaF5FD-55" value="««component»»&lt;br&gt;&lt;b&gt;StaffManagment&lt;/b&gt;" style="html=1;dropTarget=0;whiteSpace=wrap;" vertex="1" parent="1">
          <mxGeometry x="460" y="430" width="120" height="60" as="geometry" />
        </mxCell>
        <mxCell id="C0jkndqXtS-gSlhaF5FD-56" value="" style="shape=module;jettyWidth=8;jettyHeight=4;" vertex="1" parent="C0jkndqXtS-gSlhaF5FD-55">
          <mxGeometry x="1" width="20" height="20" relative="1" as="geometry">
            <mxPoint x="-27" y="7" as="offset" />
          </mxGeometry>
        </mxCell>
        <mxCell id="C0jkndqXtS-gSlhaF5FD-57" value="" style="rounded=0;whiteSpace=wrap;html=1;" vertex="1" parent="1">
          <mxGeometry x="570" y="450" width="20" height="20" as="geometry" />
        </mxCell>
        <mxCell id="C0jkndqXtS-gSlhaF5FD-58" value="" style="rounded=0;whiteSpace=wrap;html=1;" vertex="1" parent="1">
          <mxGeometry x="400" y="450" width="20" height="20" as="geometry" />
        </mxCell>
        <mxCell id="C0jkndqXtS-gSlhaF5FD-59" value="" style="endArrow=open;endSize=12;dashed=1;html=1;rounded=0;entryX=1;entryY=0.5;entryDx=0;entryDy=0;" edge="1" parent="1" target="C0jkndqXtS-gSlhaF5FD-57">
          <mxGeometry x="-0.0728" y="12" width="160" relative="1" as="geometry">
            <mxPoint x="690" y="410" as="sourcePoint" />
            <mxPoint x="600" y="298" as="targetPoint" />
            <Array as="points">
              <mxPoint x="640" y="410" />
            </Array>
            <mxPoint as="offset" />
          </mxGeometry>
        </mxCell>
        <mxCell id="C0jkndqXtS-gSlhaF5FD-60" value="" style="rounded=0;whiteSpace=wrap;html=1;" vertex="1" parent="1">
          <mxGeometry x="510" y="250" width="20" height="20" as="geometry" />
        </mxCell>
        <mxCell id="C0jkndqXtS-gSlhaF5FD-61" value="" style="endArrow=open;endSize=12;dashed=1;html=1;rounded=0;entryX=1;entryY=0.5;entryDx=0;entryDy=0;exitX=0;exitY=0.75;exitDx=0;exitDy=0;" edge="1" parent="1" source="C0jkndqXtS-gSlhaF5FD-36" target="C0jkndqXtS-gSlhaF5FD-58">
          <mxGeometry x="-0.0728" y="12" width="160" relative="1" as="geometry">
            <mxPoint x="700" y="420" as="sourcePoint" />
            <mxPoint x="600" y="470" as="targetPoint" />
            <Array as="points">
              <mxPoint x="430" y="293" />
              <mxPoint x="430" y="370" />
            </Array>
            <mxPoint as="offset" />
          </mxGeometry>
        </mxCell>
        <mxCell id="C0jkndqXtS-gSlhaF5FD-63" value="" style="endArrow=open;endSize=12;dashed=1;html=1;rounded=0;entryX=0.5;entryY=1;entryDx=0;entryDy=0;exitX=0.5;exitY=0;exitDx=0;exitDy=0;" edge="1" parent="1" source="C0jkndqXtS-gSlhaF5FD-60" target="C0jkndqXtS-gSlhaF5FD-39">
          <mxGeometry x="-0.0728" y="12" width="160" relative="1" as="geometry">
            <mxPoint x="450" y="201" as="sourcePoint" />
            <mxPoint x="506" y="201" as="targetPoint" />
            <Array as="points" />
            <mxPoint as="offset" />
          </mxGeometry>
        </mxCell>
        <mxCell id="C0jkndqXtS-gSlhaF5FD-64" value="" style="endArrow=open;endSize=12;dashed=1;html=1;rounded=0;entryX=0;entryY=0.5;entryDx=0;entryDy=0;" edge="1" parent="1" target="C0jkndqXtS-gSlhaF5FD-38">
          <mxGeometry x="-0.0728" y="12" width="160" relative="1" as="geometry">
            <mxPoint x="430" y="370" as="sourcePoint" />
            <mxPoint x="530" y="243" as="targetPoint" />
            <Array as="points" />
            <mxPoint as="offset" />
          </mxGeometry>
        </mxCell>
        <mxCell id="C0jkndqXtS-gSlhaF5FD-65" value="" style="endArrow=open;endSize=12;dashed=1;html=1;rounded=0;entryX=1;entryY=0.5;entryDx=0;entryDy=0;" edge="1" parent="1" target="C0jkndqXtS-gSlhaF5FD-33">
          <mxGeometry x="-0.0728" y="12" width="160" relative="1" as="geometry">
            <mxPoint x="430" y="300" as="sourcePoint" />
            <mxPoint x="540" y="253" as="targetPoint" />
            <Array as="points" />
            <mxPoint as="offset" />
          </mxGeometry>
        </mxCell>
      </root>
    </mxGraphModel>
  </diagram>
</mxfile>
